Coordinates
version=1
nRows=60
nColumns=12
inDegrees=yes

Units are S.I. units (second, meters, Newtons, ...)
Angles are in degrees

endheader
time	SC_y	SC_z	SC_x	AC_y	AC_z	AC_x	GH_y	GH_z	GH_yy	EL_x	PS_y
       0.0              -59.89         -1.837          11.85          55.87         -2.571          2.512          21.16          12.03          93.66          72.65          28.53
   0.03268              -59.89         -1.836          11.86          55.88         -2.573          2.513          21.13          12.03          93.65          72.65          28.53
   0.06536              -59.88         -1.834          11.86          55.88         -2.575          2.514          21.11          12.03          93.63          72.65          28.54
   0.09804              -59.88         -1.833          11.86          55.88         -2.577          2.515          21.08          12.04          93.62          72.64          28.55
    0.1307              -59.88         -1.831          11.86          55.88         -2.579          2.517          21.05          12.04          93.61          72.64          28.56
    0.1634              -59.88         -1.829          11.86          55.88         -2.582          2.518          21.01          12.04          93.59          72.64          28.58
    0.1961              -59.88         -1.827          11.87          55.88         -2.584          2.519          20.98          12.05          93.58          72.63          28.59
    0.2288              -59.88         -1.825          11.87          55.89         -2.587           2.52          20.94          12.05          93.56          72.63           28.6
    0.2614              -59.87         -1.823          11.87          55.89          -2.59          2.522           20.9          12.06          93.55          72.63          28.61
    0.2941              -59.87          -1.82          11.87          55.89         -2.593          2.523          20.86          12.06          93.53          72.62          28.63
    0.3268              -59.87         -1.818          11.88          55.89         -2.596          2.525          20.81          12.07          93.51          72.62          28.65
    0.3595              -59.87         -1.815          11.88           55.9           -2.6          2.527          20.76          12.07          93.49          72.62          28.66
    0.3922              -59.86         -1.812          11.88           55.9         -2.604          2.529           20.7          12.08          93.47          72.61          28.68
    0.4248              -59.86         -1.809          11.89           55.9         -2.608          2.531          20.65          12.08          93.44          72.61           28.7
    0.4575              -59.86         -1.805          11.89          55.91         -2.613          2.533          20.58          12.09          93.41           72.6          28.72
    0.4902              -59.85         -1.801           11.9          55.91         -2.618          2.536          20.51           12.1          93.39          72.59          28.75
    0.5229              -59.85         -1.797           11.9          55.92         -2.623          2.538          20.44          12.11          93.35          72.59          28.77
    0.5555              -59.85         -1.793          11.91          55.92         -2.629          2.541          20.36          12.12          93.32          72.58           28.8
    0.5882              -59.84         -1.788          11.91          55.93         -2.636          2.544          20.27          12.13          93.28          72.57          28.83
    0.6209              -59.84         -1.782          11.92          55.93         -2.643          2.548          20.17          12.14          93.24          72.56          28.86
    0.6536              -59.83         -1.776          11.93          55.94         -2.651          2.552          20.07          12.15           93.2          72.55           28.9
    0.6863              -59.83          -1.77          11.93          55.94         -2.659          2.556          19.95          12.16          93.15          72.54          28.94
    0.7189              -59.82         -1.762          11.94          55.95         -2.669          2.561          19.82          12.18          93.09          72.53          28.98
    0.7516              -59.81         -1.754          11.95          55.96         -2.679          2.566          19.68           12.2          93.03          72.52          29.03
    0.7843               -59.8         -1.745          11.96          55.97         -2.691          2.572          19.52          12.21          92.97           72.5          29.09
     0.817              -59.79         -1.735          11.98          55.98         -2.704          2.578          19.34          12.23          92.89          72.49          29.15
    0.8497              -59.78         -1.724          11.99          55.99         -2.719          2.585          19.14          12.26          92.81          72.47          29.22
    0.8823              -59.77         -1.711           12.0           56.0         -2.735          2.593          18.92          12.28          92.71          72.45          29.29
     0.915              -59.76         -1.697          12.02          56.02         -2.754          2.602          18.66          12.31          92.61          72.43          29.38
    0.9477              -59.74         -1.681          12.04          56.04         -2.775          2.613          18.37          12.35          92.49           72.4          29.48
    0.9804              -59.73         -1.663          12.06          56.05         -2.799          2.625          18.05          12.38          92.35          72.37          29.59
     1.013              -59.71         -1.641          12.09          56.08         -2.826          2.638          17.67          12.43          92.19          72.34          29.72
     1.046              -59.69         -1.617          12.11           56.1         -2.858          2.654          17.23          12.48          92.01           72.3          29.87
     1.078              -59.66         -1.589          12.15          56.13         -2.895          2.672          16.73          12.53           91.8          72.26          30.04
     1.111              -59.63         -1.555          12.19          56.16         -2.938          2.693          16.14           12.6          91.55           72.2          30.25
     1.144               -59.6         -1.516          12.23          56.21         -2.989          2.718          15.44          12.68          91.25          72.14          30.49
     1.176              -59.55          -1.47          12.29          56.25          -3.05          2.748          14.61          12.78          90.91          72.07          30.77
     1.209               -59.5         -1.414          12.35          56.31         -3.123          2.784          13.62          12.89          90.49          71.98          31.11
     1.242              -59.44         -1.346          12.43          56.38          -3.21          2.827          12.42          13.03          89.98          71.87          31.52
     1.274              -59.37         -1.264          12.53          56.47         -3.318           2.88          10.95           13.2          89.37          71.74          32.03
     1.307              -59.27         -1.162          12.65          56.57          -3.45          2.945          9.137           13.4          88.61          71.58          32.65
      1.34              -59.16         -1.035           12.8           56.7         -3.616          3.027          6.878          13.66          87.66          71.38          33.42
     1.373              -59.01        -0.8756          12.99          56.87         -3.824          3.129          4.032          13.99          86.46          71.12           34.4
     1.405              -58.83        -0.6724          13.23          57.07         -4.089           3.26         0.4136           14.4          84.94           70.8          35.64
     1.438              -58.59        -0.4123          13.54          57.34         -4.427          3.426         -4.217          14.94           83.0          70.38          37.22
     1.471              -58.29        -0.0786          13.93          57.69         -4.862           3.64         -10.16          15.62           80.5          69.85          39.26
     1.503               -57.9         0.3477          14.43          58.13         -5.418          3.914         -17.75          16.49          77.31          69.18          41.86
     1.536              -57.42         0.8837          15.06          58.68         -6.116          4.258          -27.3          17.58           73.3          68.32          45.14
     1.569              -56.83          1.537          15.83          59.35         -6.967          4.676         -38.93          18.92          68.42          67.29          49.12
     1.601              -56.14          2.294          16.73          60.13         -7.953          5.162         -52.41          20.46          62.76          66.08          53.74
     1.634               -55.4          3.114           17.7          60.98         -9.021          5.688         -67.01          22.14          56.63          64.78          58.75
     1.667              -54.65          3.934          18.66          61.82         -10.09          6.214         -81.61          23.81          50.49          63.47          63.75
     1.699              -53.97          4.691          19.56           62.6         -11.08          6.699         -95.09          25.36          44.83          62.27          68.37
     1.732              -53.37          5.344          20.33          63.28         -11.93          7.118         -106.7          26.69          39.95          61.23          72.36
     1.765              -52.89           5.88          20.96          63.83         -12.63          7.462         -116.3          27.78          35.94          60.38          75.63
     1.797               -52.5          6.307          21.46          64.27         -13.18          7.735         -123.9          28.65          32.75           59.7          78.24
      1.83               -52.2           6.64          21.85          64.61         -13.62          7.949         -129.8          29.34          30.25          59.17          80.27
     1.863              -51.96            6.9          22.16          64.88         -13.95          8.116         -134.4          29.87          28.31          58.76          81.86
     1.895              -51.78          7.104           22.4          65.09         -14.22          8.246         -138.0          30.28          26.79          58.43           83.1
     1.928              -51.63          7.263          22.59          65.25         -14.43          8.349         -140.9          30.61          25.59          58.18          84.08
